<svg width="384" height="512" viewBox="0 0 384 512" fill="none" xmlns="http://www.w3.org/2000/svg">
<path d="M384 121.941V128H256V0H262.059C268.424 0 274.529 2.529 279.03 7.029L376.971 104.97C381.471 109.471 384 115.576 384 121.941ZM248 160C234.8 160 224 149.2 224 136V0H24C10.745 0 0 10.745 0 24V488C0 501.255 10.745 512 24 512H360C373.255 512 384 501.255 384 488V160H248ZM123.206 400.505C122.721 401.022 122.139 401.439 121.493 401.731C120.847 402.024 120.149 402.186 119.44 402.209C118.732 402.232 118.025 402.115 117.362 401.865C116.698 401.614 116.09 401.236 115.573 400.751L50.707 339.939C50.1683 339.434 49.7389 338.824 49.4453 338.146C49.1517 337.469 49.0003 336.738 49.0003 336C49.0003 335.261 49.1517 334.53 49.4453 333.853C49.7389 333.175 50.1683 332.565 50.707 332.06L115.573 271.248C116.09 270.763 116.698 270.385 117.362 270.134C118.025 269.884 118.732 269.767 119.44 269.79C120.149 269.813 120.847 269.975 121.493 270.268C122.139 270.56 122.721 270.977 123.206 271.494L142.785 292.379C143.28 292.907 143.663 293.529 143.913 294.208C144.163 294.886 144.274 295.609 144.239 296.331C144.205 297.054 144.025 297.762 143.711 298.414C143.398 299.066 142.956 299.648 142.413 300.126L101.65 336L142.413 371.874C142.956 372.352 143.398 372.934 143.711 373.586C144.025 374.238 144.205 374.946 144.239 375.669C144.274 376.391 144.163 377.114 143.913 377.792C143.663 378.471 143.28 379.093 142.785 379.621L123.206 400.505V400.505ZM174.501 450.984L147.048 443.014C145.673 442.614 144.512 441.685 143.822 440.43C143.132 439.175 142.968 437.698 143.367 436.322L204.807 224.696C205.207 223.321 206.136 222.16 207.391 221.47C208.646 220.78 210.123 220.616 211.499 221.015L238.951 228.985C239.632 229.183 240.267 229.513 240.821 229.956C241.375 230.399 241.835 230.947 242.177 231.569C242.519 232.19 242.735 232.873 242.813 233.578C242.891 234.283 242.829 234.996 242.631 235.677L181.191 447.303C180.994 447.984 180.664 448.62 180.221 449.173C179.778 449.727 179.23 450.188 178.609 450.53C177.988 450.872 177.305 451.088 176.6 451.166C175.895 451.244 175.182 451.182 174.501 450.984V450.984ZM335.293 339.939L270.427 400.751C269.91 401.236 269.302 401.614 268.638 401.865C267.975 402.115 267.268 402.232 266.56 402.209C265.851 402.186 265.153 402.024 264.507 401.731C263.861 401.439 263.279 401.022 262.794 400.505L243.214 379.62C242.719 379.092 242.336 378.47 242.086 377.791C241.836 377.113 241.725 376.39 241.76 375.668C241.794 374.945 241.974 374.237 242.288 373.585C242.601 372.933 243.043 372.351 243.586 371.873L284.35 336L243.587 300.126C243.044 299.648 242.602 299.066 242.289 298.414C241.975 297.762 241.795 297.054 241.761 296.331C241.726 295.609 241.837 294.886 242.087 294.208C242.337 293.529 242.72 292.907 243.215 292.379L262.795 271.494C263.28 270.977 263.862 270.56 264.508 270.268C265.154 269.975 265.852 269.813 266.561 269.79C267.269 269.767 267.976 269.884 268.639 270.134C269.303 270.385 269.911 270.763 270.428 271.248L335.294 332.06C335.833 332.565 336.262 333.175 336.555 333.853C336.849 334.531 337 335.261 337 336C337 336.738 336.849 337.469 336.555 338.146C336.261 338.824 335.832 339.434 335.293 339.939V339.939Z" fill="#B0819E"/>
</svg>
