<svg width="474" height="474" viewBox="0 0 474 474" fill="none" xmlns="http://www.w3.org/2000/svg">
<g clip-path="url(#clip0)">
<path d="M437.959 317.752C449.098 317.752 459.459 321.156 468.058 326.969L408.742 44.25C405.272 27.708 388.761 14.305 371.857 14.305H101.586C84.6891 14.305 68.1701 27.714 64.7011 44.25L5.39209 326.969C13.9911 321.149 24.3511 317.752 35.4901 317.752H437.959Z" fill="#AD9EB3"/>
<path d="M35.496 459.157H437.966C457.568 459.157 473.462 443.262 473.462 423.661V371.604C473.462 364.633 471.424 358.157 467.953 352.674C461.662 342.729 450.597 336.113 437.966 336.113H35.496C22.865 336.113 11.8 342.734 5.508 352.674C2.038 358.157 0 364.639 0 371.604V423.661C0 443.268 15.894 459.157 35.496 459.157ZM412.17 392.79H334.856C329.783 392.79 325.676 388.685 325.676 383.61C325.676 378.538 329.782 374.43 334.856 374.43H412.17C417.243 374.43 421.35 378.537 421.35 383.61C421.35 388.684 417.237 392.79 412.17 392.79Z" fill="#AD9EB3"/>
</g>
<defs>
<clipPath id="clip0">
<rect width="473.462" height="473.461" fill="white"/>
</clipPath>
</defs>
</svg>
