<svg width="373" height="497" viewBox="0 0 373 497" fill="none" xmlns="http://www.w3.org/2000/svg">
<path d="M373 118.369V124.25H248.667V0H254.552C260.735 3.23046e-05 266.664 2.45435 271.036 6.82307L366.171 101.895C370.543 106.264 373 112.19 373 118.369V118.369ZM240.896 155.312C228.074 155.312 217.583 144.829 217.583 132.016V0H23.3125C10.4372 0 0 10.4302 0 23.2969V473.703C0 486.57 10.4372 497 23.3125 497H349.688C362.563 497 373 486.57 373 473.703V155.312H240.896ZM109.321 170.844C135.072 170.844 155.946 191.704 155.946 217.438C155.946 243.171 135.072 264.031 109.321 264.031C83.5705 264.031 62.6961 243.171 62.6961 217.438C62.6961 191.704 83.5714 170.844 109.321 170.844ZM311.363 403.812H62.6961L63.1672 356.748L101.55 318.391C106.102 313.842 113.011 314.313 117.563 318.861L155.946 357.219L256.496 256.736C261.048 252.188 268.428 252.188 272.981 256.736L311.363 295.094V403.812V403.812Z" fill="#C2B47F"/>
</svg>
