<svg width="384" height="512" viewBox="0 0 384 512" fill="none" xmlns="http://www.w3.org/2000/svg">
<path d="M384 121.941V128H256V0H262.059C268.424 0 274.529 2.529 279.03 7.029L376.971 104.97C381.471 109.471 384 115.576 384 121.941ZM224 136V0H24C10.745 0 0 10.745 0 24V488C0 501.255 10.745 512 24 512H360C373.255 512 384 501.255 384 488V160H248C234.8 160 224 149.2 224 136ZM320 280.016V391.979C320 413.424 294.057 423.977 279.029 408.95L224 353.941V392C224 405.255 213.255 416 200 416H88C74.745 416 64 405.255 64 392V280C64 266.745 74.745 256 88 256H200C213.255 256 224 266.745 224 280V318.059L279.029 263.046C294.04 248.036 320 258.555 320 280.016Z" fill="#8DBFBF"/>
</svg>
