<svg width="384" height="512" viewBox="0 0 384 512" fill="none" xmlns="http://www.w3.org/2000/svg">
<path d="M377 105L279.1 7C274.6 2.5 268.5 0 262.1 0H256V128H384V121.9C384 115.6 381.5 109.5 377 105ZM128.4 336C110.5 336 96 348.1 96 363C96 378 110.6 390 128.5 390C146.4 390 160.9 377.9 160.9 363C160.9 348.1 146.3 336 128.4 336ZM224 136V0H160.4V32H128.4V0H24C10.7 0 0 10.7 0 24V488C0 501.3 10.7 512 24 512H360C373.3 512 384 501.3 384 488V160H248C234.8 160 224 149.2 224 136ZM95.9 32H127.9V64H95.9V32ZM128.2 416C95 416 70.2 385.6 76.8 353.1L96.4 256V224H128.4V192H96.4V160H128.4V128H96.4V96H128.4V64H160.4V96H128.4V128H160.4V160H128.4V192H160.4V224H128.4V256H150.5C156.2 256 161.2 260.1 162.3 265.7L179.6 353.4C186 385.8 161.2 416 128.2 416V416Z" fill="#8995B5"/>
</svg>
